# xmcd
#
# Track frame offsets: 
#        150
#        11358
#        27345
#        41557
#        56149
#        67346
#        81894
#        98012
#        113696
#        126493
#        143478
#        157284
#        169154
#        179152
#        190750
#        207604
#
# Disc length: 3006 seconds
#
# Revision: 1
# Processed by: cddbd v1.5.2PL0 Copyright (c) Steve Scherf et al.
# Submitted via: ExactAudioCopy v0.99pb5
#
DISCID=ed0bbc10
DTITLE=Chris Rea - The Delmonts
DYEAR=2008
DGENRE=Blues
TTITLE0=Dirty New Town
TTITLE1=008 Jimmy Bond
TTITLE2=India Arab
TTITLE3=BB Was A Comanche
TTITLE4=Theme From The Pink Guitar
TTITLE5=Russian Roulette
TTITLE6=Black Wave Heroes
TTITLE7=Andorra Star Blues
TTITLE8=Gippo Euro
TTITLE9=The Power Of Love
TTITLE10=Big Storm Coming
TTITLE11=Race Fever Blues
TTITLE12=It's Behind You
TTITLE13=French Football
TTITLE14=Green Shirt Blues (For George Russell)
TTITLE15=Blue Miles
EXTD=
EXTT0=
EXTT1=
EXTT2=
EXTT3=
EXTT4=
EXTT5=
EXTT6=
EXTT7=
EXTT8=
EXTT9=
EXTT10=
EXTT11=
EXTT12=
EXTT13=
EXTT14=
EXTT15=
PLAYORDER=
